<svg width="39" height="40" viewBox="0 0 39 40" fill="none" xmlns="http://www.w3.org/2000/svg">
<path d="M19.4226 24C21.6318 24 23.4226 22.2091 23.4226 20C23.4226 17.7909 21.6318 16 19.4226 16C17.2135 16 15.4226 17.7909 15.4226 20C15.4226 22.2091 17.2135 24 19.4226 24Z" fill="#58C4DC"/>
<path d="M19.4226 27.225C29.8733 27.225 38.3453 23.9903 38.3453 20C38.3453 16.0098 29.8733 12.775 19.4226 12.775C8.97195 12.775 0.5 16.0098 0.5 20C0.5 23.9903 8.97195 27.225 19.4226 27.225Z" stroke="#58C4DC"/>
<path d="M13.1656 23.6125C18.391 32.663 25.4283 38.3826 28.884 36.3875C32.3396 34.3923 30.905 25.438 25.6797 16.3875C20.4544 7.33693 13.417 1.61737 9.96135 3.6125C6.50568 5.60763 7.94028 14.5619 13.1656 23.6125Z" stroke="#58C4DC"/>
<path d="M13.1656 16.3875C7.94025 25.438 6.50565 34.3923 9.96132 36.3874C13.417 38.3826 20.4543 32.663 25.6797 23.6125C30.905 14.5619 32.3396 5.6076 28.884 3.61247C25.4283 1.61734 18.3909 7.3369 13.1656 16.3875Z" stroke="#58C4DC"/>
</svg>
